<?xml version="1.0" encoding="UTF-8" standalone="no"?>
<!DOCTYPE svg PUBLIC "-//W3C//DTD SVG 1.1//EN"
 "http://www.w3.org/Graphics/SVG/1.1/DTD/svg11.dtd">
<!-- Generated by graphviz version 2.47.0 (20210316.0004)
 -->
<!-- Title: dependencies Pages: 1 -->
<svg width="504pt" height="284pt"
 viewBox="0.00 0.00 504.00 284.00" xmlns="http://www.w3.org/2000/svg" xmlns:xlink="http://www.w3.org/1999/xlink">
<g id="graph0" class="graph" transform="scale(1 1) rotate(0) translate(4 280)">
<title>dependencies</title>
<polygon fill="white" stroke="transparent" points="-4,4 -4,-280 500,-280 500,4 -4,4"/>
<text text-anchor="start" x="227.01" y="-42.4" font-family="Times-12" font-weight="bold" font-size="14.00">Legend</text>
<polygon fill="#ffffb3" stroke="transparent" points="14,-10 14,-30 34,-30 34,-10 14,-10"/>
<text text-anchor="start" x="37.63" y="-15.4" font-family="Times-12" font-size="14.00"> &#160;Declarations</text>
<polygon fill="#8dd3c7" stroke="transparent" points="127,-10 127,-30 147,-30 147,-10 127,-10"/>
<text text-anchor="start" x="150.73" y="-15.4" font-family="Times-12" font-size="14.00"> &#160;Module</text>
<polygon fill="#80b1d3" stroke="transparent" points="213,-10 213,-30 233,-30 233,-10 213,-10"/>
<text text-anchor="start" x="236.78" y="-15.4" font-family="Times-12" font-size="14.00"> &#160;Bootstrap</text>
<polygon fill="#fdb462" stroke="transparent" points="310,-10 310,-30 330,-30 330,-10 310,-10"/>
<text text-anchor="start" x="333.67" y="-15.4" font-family="Times-12" font-size="14.00"> &#160;Providers</text>
<polygon fill="#fb8072" stroke="transparent" points="406,-10 406,-30 426,-30 426,-10 406,-10"/>
<text text-anchor="start" x="429.73" y="-15.4" font-family="Times-12" font-size="14.00"> &#160;Exports</text>
<g id="clust1" class="cluster">
<title>cluster_UserModule</title>
<polygon fill="none" stroke="black" stroke-dasharray="1,5" points="59,-70 59,-268 437,-268 437,-70 59,-70"/>
</g>
<g id="clust6" class="cluster">
<title>cluster_UserModule_providers</title>
<polygon fill="none" stroke="black" points="67,-78 67,-130 429,-130 429,-78 67,-78"/>
</g>
<g id="clust4" class="cluster">
<title>cluster_UserModule_exports</title>
<polygon fill="none" stroke="black" points="101,-208 101,-260 345,-260 345,-208 101,-208"/>
</g>
<!-- UserInterface  -->
<g id="node1" class="node">
<title>UserInterface </title>
<polygon fill="#fb8072" stroke="black" points="336.66,-252 241.34,-252 241.34,-216 336.66,-216 336.66,-252"/>
<text text-anchor="middle" x="289" y="-229.8" font-family="Times,serif" font-size="14.00">UserInterface </text>
</g>
<!-- UserServiceImpl  -->
<g id="node2" class="node">
<title>UserServiceImpl </title>
<polygon fill="#fb8072" stroke="black" points="223.35,-252 108.65,-252 108.65,-216 223.35,-216 223.35,-252"/>
<text text-anchor="middle" x="166" y="-229.8" font-family="Times,serif" font-size="14.00">UserServiceImpl </text>
</g>
<!-- UserModule -->
<g id="node3" class="node">
<title>UserModule</title>
<polygon fill="#8dd3c7" stroke="black" points="242.98,-187 239.98,-191 218.98,-191 215.98,-187 157.02,-187 157.02,-151 242.98,-151 242.98,-187"/>
<text text-anchor="middle" x="200" y="-164.8" font-family="Times,serif" font-size="14.00">UserModule</text>
</g>
<!-- UserModule&#45;&gt;UserInterface  -->
<g id="edge1" class="edge">
<title>UserModule&#45;&gt;UserInterface </title>
<path fill="none" stroke="black" stroke-dasharray="5,2" d="M232.17,-187.11C232.17,-206.34 232.17,-234 232.17,-234 232.17,-234 233.09,-234 233.09,-234"/>
<polygon fill="black" stroke="black" points="231.3,-237.5 241.3,-234 231.3,-230.5 231.3,-237.5"/>
</g>
<!-- UserModule&#45;&gt;UserServiceImpl  -->
<g id="edge2" class="edge">
<title>UserModule&#45;&gt;UserServiceImpl </title>
<path fill="none" stroke="black" stroke-dasharray="5,2" d="M190.09,-187.11C190.09,-187.11 190.09,-205.99 190.09,-205.99"/>
<polygon fill="black" stroke="black" points="186.59,-205.99 190.09,-215.99 193.59,-205.99 186.59,-205.99"/>
</g>
<!-- CreateUserProvider -->
<g id="node4" class="node">
<title>CreateUserProvider</title>
<ellipse fill="#fdb462" stroke="black" cx="333" cy="-104" rx="87.94" ry="18"/>
<text text-anchor="middle" x="333" y="-99.8" font-family="Times,serif" font-size="14.00">CreateUserProvider</text>
</g>
<!-- CreateUserProvider&#45;&gt;UserModule -->
<g id="edge3" class="edge">
<title>CreateUserProvider&#45;&gt;UserModule</title>
<path fill="none" stroke="black" d="M244.96,-104C238.95,-104 235.22,-104 235.22,-104 235.22,-104 235.22,-140.89 235.22,-140.89"/>
<polygon fill="black" stroke="black" points="231.72,-140.89 235.22,-150.89 238.72,-140.89 231.72,-140.89"/>
</g>
<!-- UserServiceImpl -->
<g id="node5" class="node">
<title>UserServiceImpl</title>
<ellipse fill="#fdb462" stroke="black" cx="151" cy="-104" rx="76.42" ry="18"/>
<text text-anchor="middle" x="151" y="-99.8" font-family="Times,serif" font-size="14.00">UserServiceImpl</text>
</g>
<!-- UserServiceImpl&#45;&gt;UserModule -->
<g id="edge4" class="edge">
<title>UserServiceImpl&#45;&gt;UserModule</title>
<path fill="none" stroke="black" d="M192.24,-119.4C192.24,-119.4 192.24,-140.94 192.24,-140.94"/>
<polygon fill="black" stroke="black" points="188.74,-140.94 192.24,-150.94 195.74,-140.94 188.74,-140.94"/>
</g>
</g>
</svg>
