<?xml version="1.0" encoding="UTF-8" standalone="no"?>
<!DOCTYPE svg PUBLIC "-//W3C//DTD SVG 1.1//EN"
 "http://www.w3.org/Graphics/SVG/1.1/DTD/svg11.dtd">
<!-- Generated by graphviz version 2.47.0 (20210316.0004)
 -->
<!-- Title: dependencies Pages: 1 -->
<svg width="504pt" height="284pt"
 viewBox="0.00 0.00 504.00 284.00" xmlns="http://www.w3.org/2000/svg" xmlns:xlink="http://www.w3.org/1999/xlink">
<g id="graph0" class="graph" transform="scale(1 1) rotate(0) translate(4 280)">
<title>dependencies</title>
<polygon fill="white" stroke="transparent" points="-4,4 -4,-280 500,-280 500,4 -4,4"/>
<text text-anchor="start" x="227.01" y="-42.4" font-family="Times-12" font-weight="bold" font-size="14.00">Legend</text>
<polygon fill="#ffffb3" stroke="transparent" points="14,-10 14,-30 34,-30 34,-10 14,-10"/>
<text text-anchor="start" x="37.63" y="-15.4" font-family="Times-12" font-size="14.00"> &#160;Declarations</text>
<polygon fill="#8dd3c7" stroke="transparent" points="127,-10 127,-30 147,-30 147,-10 127,-10"/>
<text text-anchor="start" x="150.73" y="-15.4" font-family="Times-12" font-size="14.00"> &#160;Module</text>
<polygon fill="#80b1d3" stroke="transparent" points="213,-10 213,-30 233,-30 233,-10 213,-10"/>
<text text-anchor="start" x="236.78" y="-15.4" font-family="Times-12" font-size="14.00"> &#160;Bootstrap</text>
<polygon fill="#fdb462" stroke="transparent" points="310,-10 310,-30 330,-30 330,-10 310,-10"/>
<text text-anchor="start" x="333.67" y="-15.4" font-family="Times-12" font-size="14.00"> &#160;Providers</text>
<polygon fill="#fb8072" stroke="transparent" points="406,-10 406,-30 426,-30 426,-10 406,-10"/>
<text text-anchor="start" x="429.73" y="-15.4" font-family="Times-12" font-size="14.00"> &#160;Exports</text>
<g id="clust1" class="cluster">
<title>cluster_AuthModule</title>
<polygon fill="none" stroke="black" stroke-dasharray="1,5" points="63.5,-70 63.5,-268 432.5,-268 432.5,-70 63.5,-70"/>
</g>
<g id="clust4" class="cluster">
<title>cluster_AuthModule_exports</title>
<polygon fill="none" stroke="black" points="71.5,-208 71.5,-260 424.5,-260 424.5,-208 71.5,-208"/>
</g>
<g id="clust6" class="cluster">
<title>cluster_AuthModule_providers</title>
<polygon fill="none" stroke="black" points="102.5,-78 102.5,-130 394.5,-130 394.5,-78 102.5,-78"/>
</g>
<!-- AuthInterface  -->
<g id="node1" class="node">
<title>AuthInterface </title>
<polygon fill="#fb8072" stroke="black" points="416.23,-252 318.77,-252 318.77,-216 416.23,-216 416.23,-252"/>
<text text-anchor="middle" x="367.5" y="-229.8" font-family="Times,serif" font-size="14.00">AuthInterface </text>
</g>
<!-- AuthService  -->
<g id="node2" class="node">
<title>AuthService </title>
<polygon fill="#fb8072" stroke="black" points="301.48,-252 211.52,-252 211.52,-216 301.48,-216 301.48,-252"/>
<text text-anchor="middle" x="256.5" y="-229.8" font-family="Times,serif" font-size="14.00">AuthService </text>
</g>
<!-- HashingProvider  -->
<g id="node3" class="node">
<title>HashingProvider </title>
<polygon fill="#fb8072" stroke="black" points="193.87,-252 79.13,-252 79.13,-216 193.87,-216 193.87,-252"/>
<text text-anchor="middle" x="136.5" y="-229.8" font-family="Times,serif" font-size="14.00">HashingProvider </text>
</g>
<!-- AuthModule -->
<g id="node4" class="node">
<title>AuthModule</title>
<polygon fill="#8dd3c7" stroke="black" points="300.05,-187 297.05,-191 276.05,-191 273.05,-187 212.95,-187 212.95,-151 300.05,-151 300.05,-187"/>
<text text-anchor="middle" x="256.5" y="-164.8" font-family="Times,serif" font-size="14.00">AuthModule</text>
</g>
<!-- AuthModule&#45;&gt;AuthInterface  -->
<g id="edge1" class="edge">
<title>AuthModule&#45;&gt;AuthInterface </title>
<path fill="none" stroke="black" stroke-dasharray="5,2" d="M300.16,-169C325.65,-169 352.84,-169 352.84,-169 352.84,-169 352.84,-205.89 352.84,-205.89"/>
<polygon fill="black" stroke="black" points="349.35,-205.89 352.84,-215.89 356.35,-205.89 349.35,-205.89"/>
</g>
<!-- AuthModule&#45;&gt;AuthService  -->
<g id="edge2" class="edge">
<title>AuthModule&#45;&gt;AuthService </title>
<path fill="none" stroke="black" stroke-dasharray="5,2" d="M256.5,-187.11C256.5,-187.11 256.5,-205.99 256.5,-205.99"/>
<polygon fill="black" stroke="black" points="253,-205.99 256.5,-215.99 260,-205.99 253,-205.99"/>
</g>
<!-- AuthModule&#45;&gt;HashingProvider  -->
<g id="edge3" class="edge">
<title>AuthModule&#45;&gt;HashingProvider </title>
<path fill="none" stroke="black" stroke-dasharray="5,2" d="M212.82,-169C184.2,-169 152.07,-169 152.07,-169 152.07,-169 152.07,-205.89 152.07,-205.89"/>
<polygon fill="black" stroke="black" points="148.57,-205.89 152.07,-215.89 155.57,-205.89 148.57,-205.89"/>
</g>
<!-- AuthService -->
<g id="node5" class="node">
<title>AuthService</title>
<ellipse fill="#fdb462" stroke="black" cx="327.5" cy="-104" rx="59.11" ry="18"/>
<text text-anchor="middle" x="327.5" y="-99.8" font-family="Times,serif" font-size="14.00">AuthService</text>
</g>
<!-- AuthService&#45;&gt;AuthModule -->
<g id="edge4" class="edge">
<title>AuthService&#45;&gt;AuthModule</title>
<path fill="none" stroke="black" d="M284.23,-116.53C284.23,-116.53 284.23,-140.85 284.23,-140.85"/>
<polygon fill="black" stroke="black" points="280.73,-140.85 284.23,-150.85 287.73,-140.85 280.73,-140.85"/>
</g>
<!-- SignInProvider -->
<g id="node6" class="node">
<title>SignInProvider</title>
<ellipse fill="#fdb462" stroke="black" cx="180.5" cy="-104" rx="70.08" ry="18"/>
<text text-anchor="middle" x="180.5" y="-99.8" font-family="Times,serif" font-size="14.00">SignInProvider</text>
</g>
<!-- SignInProvider&#45;&gt;AuthModule -->
<g id="edge5" class="edge">
<title>SignInProvider&#45;&gt;AuthModule</title>
<path fill="none" stroke="black" d="M231.63,-116.53C231.63,-116.53 231.63,-140.85 231.63,-140.85"/>
<polygon fill="black" stroke="black" points="228.13,-140.85 231.63,-150.85 235.13,-140.85 228.13,-140.85"/>
</g>
</g>
</svg>
