<?xml version="1.0" encoding="UTF-8" standalone="no"?>
<!DOCTYPE svg PUBLIC "-//W3C//DTD SVG 1.1//EN"
 "http://www.w3.org/Graphics/SVG/1.1/DTD/svg11.dtd">
<!-- Generated by graphviz version 2.47.0 (20210316.0004)
 -->
<!-- Title: dependencies Pages: 1 -->
<svg width="504pt" height="284pt"
 viewBox="0.00 0.00 504.00 284.00" xmlns="http://www.w3.org/2000/svg" xmlns:xlink="http://www.w3.org/1999/xlink">
<g id="graph0" class="graph" transform="scale(1 1) rotate(0) translate(4 280)">
<title>dependencies</title>
<polygon fill="white" stroke="transparent" points="-4,4 -4,-280 500,-280 500,4 -4,4"/>
<text text-anchor="start" x="227.01" y="-42.4" font-family="Times-12" font-weight="bold" font-size="14.00">Legend</text>
<polygon fill="#ffffb3" stroke="transparent" points="14,-10 14,-30 34,-30 34,-10 14,-10"/>
<text text-anchor="start" x="37.63" y="-15.4" font-family="Times-12" font-size="14.00"> &#160;Declarations</text>
<polygon fill="#8dd3c7" stroke="transparent" points="127,-10 127,-30 147,-30 147,-10 127,-10"/>
<text text-anchor="start" x="150.73" y="-15.4" font-family="Times-12" font-size="14.00"> &#160;Module</text>
<polygon fill="#80b1d3" stroke="transparent" points="213,-10 213,-30 233,-30 233,-10 213,-10"/>
<text text-anchor="start" x="236.78" y="-15.4" font-family="Times-12" font-size="14.00"> &#160;Bootstrap</text>
<polygon fill="#fdb462" stroke="transparent" points="310,-10 310,-30 330,-30 330,-10 310,-10"/>
<text text-anchor="start" x="333.67" y="-15.4" font-family="Times-12" font-size="14.00"> &#160;Providers</text>
<polygon fill="#fb8072" stroke="transparent" points="406,-10 406,-30 426,-30 426,-10 406,-10"/>
<text text-anchor="start" x="429.73" y="-15.4" font-family="Times-12" font-size="14.00"> &#160;Exports</text>
<g id="clust1" class="cluster">
<title>cluster_ProductModule</title>
<polygon fill="none" stroke="black" stroke-dasharray="1,5" points="101,-70 101,-268 395,-268 395,-70 101,-70"/>
</g>
<g id="clust6" class="cluster">
<title>cluster_ProductModule_providers</title>
<polygon fill="none" stroke="black" points="152,-78 152,-130 344,-130 344,-78 152,-78"/>
</g>
<g id="clust4" class="cluster">
<title>cluster_ProductModule_exports</title>
<polygon fill="none" stroke="black" points="109,-208 109,-260 387,-260 387,-208 109,-208"/>
</g>
<!-- ProductInterface  -->
<g id="node1" class="node">
<title>ProductInterface </title>
<polygon fill="#fb8072" stroke="black" points="379.28,-252 266.72,-252 266.72,-216 379.28,-216 379.28,-252"/>
<text text-anchor="middle" x="323" y="-229.8" font-family="Times,serif" font-size="14.00">ProductInterface </text>
</g>
<!-- ProductServiceImpl  -->
<g id="node2" class="node">
<title>ProductServiceImpl </title>
<polygon fill="#fb8072" stroke="black" points="248.97,-252 117.03,-252 117.03,-216 248.97,-216 248.97,-252"/>
<text text-anchor="middle" x="183" y="-229.8" font-family="Times,serif" font-size="14.00">ProductServiceImpl </text>
</g>
<!-- ProductModule -->
<g id="node3" class="node">
<title>ProductModule</title>
<polygon fill="#8dd3c7" stroke="black" points="299.6,-187 296.6,-191 275.6,-191 272.6,-187 196.4,-187 196.4,-151 299.6,-151 299.6,-187"/>
<text text-anchor="middle" x="248" y="-164.8" font-family="Times,serif" font-size="14.00">ProductModule</text>
</g>
<!-- ProductModule&#45;&gt;ProductInterface  -->
<g id="edge1" class="edge">
<title>ProductModule&#45;&gt;ProductInterface </title>
<path fill="none" stroke="black" stroke-dasharray="5,2" d="M283.08,-187.11C283.08,-187.11 283.08,-205.99 283.08,-205.99"/>
<polygon fill="black" stroke="black" points="279.58,-205.99 283.08,-215.99 286.58,-205.99 279.58,-205.99"/>
</g>
<!-- ProductModule&#45;&gt;ProductServiceImpl  -->
<g id="edge2" class="edge">
<title>ProductModule&#45;&gt;ProductServiceImpl </title>
<path fill="none" stroke="black" stroke-dasharray="5,2" d="M222.59,-187.11C222.59,-187.11 222.59,-205.99 222.59,-205.99"/>
<polygon fill="black" stroke="black" points="219.09,-205.99 222.59,-215.99 226.09,-205.99 219.09,-205.99"/>
</g>
<!-- ProductServiceImpl -->
<g id="node4" class="node">
<title>ProductServiceImpl</title>
<ellipse fill="#fdb462" stroke="black" cx="248" cy="-104" rx="88.04" ry="18"/>
<text text-anchor="middle" x="248" y="-99.8" font-family="Times,serif" font-size="14.00">ProductServiceImpl</text>
</g>
<!-- ProductServiceImpl&#45;&gt;ProductModule -->
<g id="edge3" class="edge">
<title>ProductServiceImpl&#45;&gt;ProductModule</title>
<path fill="none" stroke="black" d="M248,-122.11C248,-122.11 248,-140.99 248,-140.99"/>
<polygon fill="black" stroke="black" points="244.5,-140.99 248,-150.99 251.5,-140.99 244.5,-140.99"/>
</g>
</g>
</svg>
