<?xml version="1.0" encoding="UTF-8" standalone="no"?>
<!DOCTYPE svg PUBLIC "-//W3C//DTD SVG 1.1//EN"
 "http://www.w3.org/Graphics/SVG/1.1/DTD/svg11.dtd">
<!-- Generated by graphviz version 2.47.0 (20210316.0004)
 -->
<!-- Title: dependencies Pages: 1 -->
<svg width="2052pt" height="298pt"
 viewBox="0.00 0.00 2052.00 298.00" xmlns="http://www.w3.org/2000/svg" xmlns:xlink="http://www.w3.org/1999/xlink">
<g id="graph0" class="graph" transform="scale(1 1) rotate(0) translate(4 294)">
<title>dependencies</title>
<polygon fill="white" stroke="transparent" points="-4,4 -4,-294 2048,-294 2048,4 -4,4"/>
<text text-anchor="start" x="1001.01" y="-42.4" font-family="Times-12" font-weight="bold" font-size="14.00">Legend</text>
<polygon fill="#ffffb3" stroke="transparent" points="788,-10 788,-30 808,-30 808,-10 788,-10"/>
<text text-anchor="start" x="811.63" y="-15.4" font-family="Times-12" font-size="14.00"> &#160;Declarations</text>
<polygon fill="#8dd3c7" stroke="transparent" points="901,-10 901,-30 921,-30 921,-10 901,-10"/>
<text text-anchor="start" x="924.73" y="-15.4" font-family="Times-12" font-size="14.00"> &#160;Module</text>
<polygon fill="#80b1d3" stroke="transparent" points="987,-10 987,-30 1007,-30 1007,-10 987,-10"/>
<text text-anchor="start" x="1010.78" y="-15.4" font-family="Times-12" font-size="14.00"> &#160;Bootstrap</text>
<polygon fill="#fdb462" stroke="transparent" points="1084,-10 1084,-30 1104,-30 1104,-10 1084,-10"/>
<text text-anchor="start" x="1107.67" y="-15.4" font-family="Times-12" font-size="14.00"> &#160;Providers</text>
<polygon fill="#fb8072" stroke="transparent" points="1180,-10 1180,-30 1200,-30 1200,-10 1180,-10"/>
<text text-anchor="start" x="1203.73" y="-15.4" font-family="Times-12" font-size="14.00"> &#160;Exports</text>
<g id="clust19" class="cluster">
<title>cluster_ProductModule</title>
<polygon fill="none" stroke="black" stroke-dasharray="1,5" points="8,-70 8,-206 216,-206 216,-70 8,-70"/>
</g>
<g id="clust24" class="cluster">
<title>cluster_ProductModule_providers</title>
<polygon fill="none" stroke="black" points="16,-78 16,-130 208,-130 208,-78 16,-78"/>
</g>
<g id="clust1" class="cluster">
<title>cluster_AppModule</title>
<polygon fill="none" stroke="black" stroke-dasharray="1,5" points="224,-146 224,-274 720,-274 720,-146 224,-146"/>
</g>
<g id="clust3" class="cluster">
<title>cluster_AppModule_imports</title>
<polygon fill="none" stroke="black" points="370,-154 370,-206 712,-206 712,-154 370,-154"/>
</g>
<g id="clust6" class="cluster">
<title>cluster_AppModule_providers</title>
<polygon fill="none" stroke="black" points="232,-154 232,-206 362,-206 362,-154 232,-154"/>
</g>
<g id="clust7" class="cluster">
<title>cluster_AuthModule</title>
<polygon fill="none" stroke="black" stroke-dasharray="1,5" points="728,-214 728,-282 1398,-282 1398,-214 728,-214"/>
</g>
<g id="clust12" class="cluster">
<title>cluster_AuthModule_providers</title>
<polygon fill="none" stroke="black" points="1098,-222 1098,-274 1390,-274 1390,-222 1098,-222"/>
</g>
<g id="clust10" class="cluster">
<title>cluster_AuthModule_exports</title>
<polygon fill="none" stroke="black" points="736,-222 736,-274 1090,-274 1090,-222 736,-222"/>
</g>
<g id="clust13" class="cluster">
<title>cluster_EmployeeModule</title>
<polygon fill="none" stroke="black" stroke-dasharray="1,5" points="323,-70 323,-138 549,-138 549,-70 323,-70"/>
</g>
<g id="clust18" class="cluster">
<title>cluster_EmployeeModule_providers</title>
<polygon fill="none" stroke="black" points="331,-78 331,-130 541,-130 541,-78 331,-78"/>
</g>
<g id="clust25" class="cluster">
<title>cluster_UserModule</title>
<polygon fill="none" stroke="black" stroke-dasharray="1,5" points="1406,-214 1406,-282 2036,-282 2036,-214 1406,-214"/>
</g>
<g id="clust28" class="cluster">
<title>cluster_UserModule_exports</title>
<polygon fill="none" stroke="black" points="1784,-222 1784,-274 2028,-274 2028,-222 1784,-222"/>
</g>
<g id="clust30" class="cluster">
<title>cluster_UserModule_providers</title>
<polygon fill="none" stroke="black" points="1414,-222 1414,-274 1776,-274 1776,-222 1414,-222"/>
</g>
<!-- AuthModule -->
<g id="node1" class="node">
<title>AuthModule</title>
<polygon fill="#8dd3c7" stroke="black" points="599.55,-198 596.55,-202 575.55,-202 572.55,-198 512.45,-198 512.45,-162 599.55,-162 599.55,-198"/>
<text text-anchor="middle" x="556" y="-175.8" font-family="Times,serif" font-size="14.00">AuthModule</text>
</g>
<!-- AppModule -->
<g id="node5" class="node">
<title>AppModule</title>
<polygon fill="#8dd3c7" stroke="black" points="477.66,-266 474.66,-270 453.66,-270 450.66,-266 394.34,-266 394.34,-230 477.66,-230 477.66,-266"/>
<text text-anchor="middle" x="436" y="-243.8" font-family="Times,serif" font-size="14.00">AppModule</text>
</g>
<!-- AuthModule&#45;&gt;AppModule -->
<g id="edge1" class="edge">
<title>AuthModule&#45;&gt;AppModule</title>
<path fill="none" stroke="black" d="M574.76,-198.22C574.76,-218.37 574.76,-248 574.76,-248 574.76,-248 488.01,-248 488.01,-248"/>
<polygon fill="black" stroke="black" points="488.01,-244.5 478.01,-248 488.01,-251.5 488.01,-244.5"/>
</g>
<!-- AuthInterface  -->
<g id="node7" class="node">
<title>AuthInterface </title>
<polygon fill="#fb8072" stroke="black" points="841.73,-266 744.27,-266 744.27,-230 841.73,-230 841.73,-266"/>
<text text-anchor="middle" x="793" y="-243.8" font-family="Times,serif" font-size="14.00">AuthInterface </text>
</g>
<!-- AuthModule&#45;&gt;AuthInterface  -->
<g id="edge6" class="edge">
<title>AuthModule&#45;&gt;AuthInterface </title>
<path fill="none" stroke="black" stroke-dasharray="5,2" d="M587.27,-198.02C587.27,-215.37 587.27,-239 587.27,-239 587.27,-239 734.24,-239 734.24,-239"/>
<polygon fill="black" stroke="black" points="734.24,-242.5 744.24,-239 734.24,-235.5 734.24,-242.5"/>
</g>
<!-- AuthService  -->
<g id="node8" class="node">
<title>AuthService </title>
<polygon fill="#fb8072" stroke="black" points="1081.98,-266 992.02,-266 992.02,-230 1081.98,-230 1081.98,-266"/>
<text text-anchor="middle" x="1037" y="-243.8" font-family="Times,serif" font-size="14.00">AuthService </text>
</g>
<!-- AuthModule&#45;&gt;AuthService  -->
<g id="edge7" class="edge">
<title>AuthModule&#45;&gt;AuthService </title>
<path fill="none" stroke="black" stroke-dasharray="5,2" d="M562.25,-198.11C562.25,-207.9 562.25,-218 562.25,-218 562.25,-218 1037,-218 1037,-218 1037,-218 1037,-219.86 1037,-219.86"/>
<polygon fill="black" stroke="black" points="1033.5,-219.86 1037,-229.86 1040.5,-219.86 1033.5,-219.86"/>
</g>
<!-- HashingProvider  -->
<g id="node9" class="node">
<title>HashingProvider </title>
<polygon fill="#fb8072" stroke="black" points="974.37,-266 859.63,-266 859.63,-230 974.37,-230 974.37,-266"/>
<text text-anchor="middle" x="917" y="-243.8" font-family="Times,serif" font-size="14.00">HashingProvider </text>
</g>
<!-- AuthModule&#45;&gt;HashingProvider  -->
<g id="edge8" class="edge">
<title>AuthModule&#45;&gt;HashingProvider </title>
<path fill="none" stroke="black" stroke-dasharray="5,2" d="M549.75,-198.15C549.75,-210.27 549.75,-224 549.75,-224 549.75,-224 917,-224 917,-224 917,-224 917,-224.58 917,-224.58"/>
<polygon fill="black" stroke="black" points="913.5,-219.81 917,-229.81 920.5,-219.81 913.5,-219.81"/>
</g>
<!-- EmployeeModule -->
<g id="node2" class="node">
<title>EmployeeModule</title>
<polygon fill="#8dd3c7" stroke="black" points="494.31,-198 491.31,-202 470.31,-202 467.31,-198 377.69,-198 377.69,-162 494.31,-162 494.31,-198"/>
<text text-anchor="middle" x="436" y="-175.8" font-family="Times,serif" font-size="14.00">EmployeeModule</text>
</g>
<!-- EmployeeModule&#45;&gt;AppModule -->
<g id="edge2" class="edge">
<title>EmployeeModule&#45;&gt;AppModule</title>
<path fill="none" stroke="black" d="M436,-198.22C436,-198.22 436,-219.73 436,-219.73"/>
<polygon fill="black" stroke="black" points="432.5,-219.73 436,-229.73 439.5,-219.73 432.5,-219.73"/>
</g>
<!-- ProductModule -->
<g id="node3" class="node">
<title>ProductModule</title>
<polygon fill="#8dd3c7" stroke="black" points="185.6,-198 182.6,-202 161.6,-202 158.6,-198 82.4,-198 82.4,-162 185.6,-162 185.6,-198"/>
<text text-anchor="middle" x="134" y="-175.8" font-family="Times,serif" font-size="14.00">ProductModule</text>
</g>
<!-- ProductModule&#45;&gt;AppModule -->
<g id="edge3" class="edge">
<title>ProductModule&#45;&gt;AppModule</title>
<path fill="none" stroke="black" d="M134,-198.29C134,-220.21 134,-254 134,-254 134,-254 384.33,-254 384.33,-254"/>
<polygon fill="black" stroke="black" points="384.33,-257.5 394.33,-254 384.33,-250.5 384.33,-257.5"/>
</g>
<!-- UserModule -->
<g id="node4" class="node">
<title>UserModule</title>
<polygon fill="#8dd3c7" stroke="black" points="703.98,-198 700.98,-202 679.98,-202 676.98,-198 618.02,-198 618.02,-162 703.98,-162 703.98,-198"/>
<text text-anchor="middle" x="661" y="-175.8" font-family="Times,serif" font-size="14.00">UserModule</text>
</g>
<!-- UserModule&#45;&gt;AppModule -->
<g id="edge4" class="edge">
<title>UserModule&#45;&gt;AppModule</title>
<path fill="none" stroke="black" d="M661,-198.25C661,-221.02 661,-257 661,-257 661,-257 487.79,-257 487.79,-257"/>
<polygon fill="black" stroke="black" points="487.79,-253.5 477.79,-257 487.79,-260.5 487.79,-253.5"/>
</g>
<!-- UserInterface  -->
<g id="node14" class="node">
<title>UserInterface </title>
<polygon fill="#fb8072" stroke="black" points="2019.66,-266 1924.34,-266 1924.34,-230 2019.66,-230 2019.66,-266"/>
<text text-anchor="middle" x="1972" y="-243.8" font-family="Times,serif" font-size="14.00">UserInterface </text>
</g>
<!-- UserModule&#45;&gt;UserInterface  -->
<g id="edge13" class="edge">
<title>UserModule&#45;&gt;UserInterface </title>
<path fill="none" stroke="black" stroke-dasharray="5,2" d="M704.25,-170C930.96,-170 1972,-170 1972,-170 1972,-170 1972,-219.91 1972,-219.91"/>
<polygon fill="black" stroke="black" points="1968.5,-219.91 1972,-229.91 1975.5,-219.91 1968.5,-219.91"/>
</g>
<!-- UserServiceImpl  -->
<g id="node15" class="node">
<title>UserServiceImpl </title>
<polygon fill="#fb8072" stroke="black" points="1906.35,-266 1791.65,-266 1791.65,-230 1906.35,-230 1906.35,-266"/>
<text text-anchor="middle" x="1849" y="-243.8" font-family="Times,serif" font-size="14.00">UserServiceImpl </text>
</g>
<!-- UserModule&#45;&gt;UserServiceImpl  -->
<g id="edge14" class="edge">
<title>UserModule&#45;&gt;UserServiceImpl </title>
<path fill="none" stroke="black" stroke-dasharray="5,2" d="M703.98,-177C916.97,-177 1849,-177 1849,-177 1849,-177 1849,-219.72 1849,-219.72"/>
<polygon fill="black" stroke="black" points="1845.5,-219.72 1849,-229.72 1852.5,-219.72 1845.5,-219.72"/>
</g>
<!-- AppService -->
<g id="node6" class="node">
<title>AppService</title>
<ellipse fill="#fdb462" stroke="black" cx="297" cy="-180" rx="56.74" ry="18"/>
<text text-anchor="middle" x="297" y="-175.8" font-family="Times,serif" font-size="14.00">AppService</text>
</g>
<!-- AppService&#45;&gt;AppModule -->
<g id="edge5" class="edge">
<title>AppService&#45;&gt;AppModule</title>
<path fill="none" stroke="black" d="M297,-198.27C297,-216.56 297,-242 297,-242 297,-242 384.3,-242 384.3,-242"/>
<polygon fill="black" stroke="black" points="384.3,-245.5 394.3,-242 384.3,-238.5 384.3,-245.5"/>
</g>
<!-- AuthService -->
<g id="node10" class="node">
<title>AuthService</title>
<ellipse fill="#fdb462" stroke="black" cx="1323" cy="-248" rx="59.11" ry="18"/>
<text text-anchor="middle" x="1323" y="-243.8" font-family="Times,serif" font-size="14.00">AuthService</text>
</g>
<!-- AuthService&#45;&gt;AuthModule -->
<g id="edge9" class="edge">
<title>AuthService&#45;&gt;AuthModule</title>
<path fill="none" stroke="black" d="M1323,-229.51C1323,-217.86 1323,-205 1323,-205 1323,-205 537.24,-205 537.24,-205 537.24,-205 537.24,-204.32 537.24,-204.32"/>
<polygon fill="black" stroke="black" points="540.74,-208.17 537.24,-198.17 533.74,-208.17 540.74,-208.17"/>
</g>
<!-- SignInProvider -->
<g id="node11" class="node">
<title>SignInProvider</title>
<ellipse fill="#fdb462" stroke="black" cx="1176" cy="-248" rx="70.08" ry="18"/>
<text text-anchor="middle" x="1176" y="-243.8" font-family="Times,serif" font-size="14.00">SignInProvider</text>
</g>
<!-- SignInProvider&#45;&gt;AuthModule -->
<g id="edge10" class="edge">
<title>SignInProvider&#45;&gt;AuthModule</title>
<path fill="none" stroke="black" d="M1176,-229.93C1176,-220.54 1176,-211 1176,-211 1176,-211 524.73,-211 524.73,-211 524.73,-211 524.73,-208.03 524.73,-208.03"/>
<polygon fill="black" stroke="black" points="528.23,-208.03 524.73,-198.03 521.23,-208.03 528.23,-208.03"/>
</g>
<!-- EmployeeServiceImpl -->
<g id="node12" class="node">
<title>EmployeeServiceImpl</title>
<ellipse fill="#fdb462" stroke="black" cx="436" cy="-104" rx="97.27" ry="18"/>
<text text-anchor="middle" x="436" y="-99.8" font-family="Times,serif" font-size="14.00">EmployeeServiceImpl</text>
</g>
<!-- EmployeeServiceImpl&#45;&gt;EmployeeModule -->
<g id="edge11" class="edge">
<title>EmployeeServiceImpl&#45;&gt;EmployeeModule</title>
<path fill="none" stroke="black" d="M436,-122.01C436,-122.01 436,-151.85 436,-151.85"/>
<polygon fill="black" stroke="black" points="432.5,-151.85 436,-161.85 439.5,-151.85 432.5,-151.85"/>
</g>
<!-- ProductServiceImpl -->
<g id="node13" class="node">
<title>ProductServiceImpl</title>
<ellipse fill="#fdb462" stroke="black" cx="112" cy="-104" rx="88.04" ry="18"/>
<text text-anchor="middle" x="112" y="-99.8" font-family="Times,serif" font-size="14.00">ProductServiceImpl</text>
</g>
<!-- ProductServiceImpl&#45;&gt;ProductModule -->
<g id="edge12" class="edge">
<title>ProductServiceImpl&#45;&gt;ProductModule</title>
<path fill="none" stroke="black" d="M134,-121.63C134,-121.63 134,-151.94 134,-151.94"/>
<polygon fill="black" stroke="black" points="130.5,-151.94 134,-161.94 137.5,-151.94 130.5,-151.94"/>
</g>
<!-- CreateUserProvider -->
<g id="node16" class="node">
<title>CreateUserProvider</title>
<ellipse fill="#fdb462" stroke="black" cx="1680" cy="-248" rx="87.94" ry="18"/>
<text text-anchor="middle" x="1680" y="-243.8" font-family="Times,serif" font-size="14.00">CreateUserProvider</text>
</g>
<!-- CreateUserProvider&#45;&gt;UserModule -->
<g id="edge15" class="edge">
<title>CreateUserProvider&#45;&gt;UserModule</title>
<path fill="none" stroke="black" d="M1680,-229.83C1680,-210.91 1680,-184 1680,-184 1680,-184 714.13,-184 714.13,-184"/>
<polygon fill="black" stroke="black" points="714.13,-180.5 704.13,-184 714.13,-187.5 714.13,-180.5"/>
</g>
<!-- UserServiceImpl -->
<g id="node17" class="node">
<title>UserServiceImpl</title>
<ellipse fill="#fdb462" stroke="black" cx="1498" cy="-248" rx="76.42" ry="18"/>
<text text-anchor="middle" x="1498" y="-243.8" font-family="Times,serif" font-size="14.00">UserServiceImpl</text>
</g>
<!-- UserServiceImpl&#45;&gt;UserModule -->
<g id="edge16" class="edge">
<title>UserServiceImpl&#45;&gt;UserModule</title>
<path fill="none" stroke="black" d="M1498,-229.96C1498,-213.27 1498,-191 1498,-191 1498,-191 714.24,-191 714.24,-191"/>
<polygon fill="black" stroke="black" points="714.24,-187.5 704.24,-191 714.24,-194.5 714.24,-187.5"/>
</g>
</g>
</svg>
