<?xml version="1.0" encoding="UTF-8" standalone="no"?>
<!DOCTYPE svg PUBLIC "-//W3C//DTD SVG 1.1//EN"
 "http://www.w3.org/Graphics/SVG/1.1/DTD/svg11.dtd">
<!-- Generated by graphviz version 2.47.0 (20210316.0004)
 -->
<!-- Title: dependencies Pages: 1 -->
<svg width="1233pt" height="290pt"
 viewBox="0.00 0.00 1233.00 290.00" xmlns="http://www.w3.org/2000/svg" xmlns:xlink="http://www.w3.org/1999/xlink">
<g id="graph0" class="graph" transform="scale(1 1) rotate(0) translate(4 286)">
<title>dependencies</title>
<polygon fill="white" stroke="transparent" points="-4,4 -4,-286 1229,-286 1229,4 -4,4"/>
<text text-anchor="start" x="591.51" y="-42.4" font-family="Times-12" font-weight="bold" font-size="14.00">Legend</text>
<polygon fill="#ffffb3" stroke="transparent" points="378.5,-10 378.5,-30 398.5,-30 398.5,-10 378.5,-10"/>
<text text-anchor="start" x="402.13" y="-15.4" font-family="Times-12" font-size="14.00"> &#160;Declarations</text>
<polygon fill="#8dd3c7" stroke="transparent" points="491.5,-10 491.5,-30 511.5,-30 511.5,-10 491.5,-10"/>
<text text-anchor="start" x="515.23" y="-15.4" font-family="Times-12" font-size="14.00"> &#160;Module</text>
<polygon fill="#80b1d3" stroke="transparent" points="577.5,-10 577.5,-30 597.5,-30 597.5,-10 577.5,-10"/>
<text text-anchor="start" x="601.28" y="-15.4" font-family="Times-12" font-size="14.00"> &#160;Bootstrap</text>
<polygon fill="#fdb462" stroke="transparent" points="674.5,-10 674.5,-30 694.5,-30 694.5,-10 674.5,-10"/>
<text text-anchor="start" x="698.17" y="-15.4" font-family="Times-12" font-size="14.00"> &#160;Providers</text>
<polygon fill="#fb8072" stroke="transparent" points="770.5,-10 770.5,-30 790.5,-30 790.5,-10 770.5,-10"/>
<text text-anchor="start" x="794.23" y="-15.4" font-family="Times-12" font-size="14.00"> &#160;Exports</text>
<g id="clust7" class="cluster">
<title>cluster_AuthModule</title>
<polygon fill="none" stroke="black" stroke-dasharray="1,5" points="848,-70 848,-274 1217,-274 1217,-70 848,-70"/>
</g>
<g id="clust12" class="cluster">
<title>cluster_AuthModule_providers</title>
<polygon fill="none" stroke="black" points="886,-78 886,-130 1178,-130 1178,-78 886,-78"/>
</g>
<g id="clust10" class="cluster">
<title>cluster_AuthModule_exports</title>
<polygon fill="none" stroke="black" points="856,-214 856,-266 1209,-266 1209,-214 856,-214"/>
</g>
<g id="clust1" class="cluster">
<title>cluster_AppModule</title>
<polygon fill="none" stroke="black" stroke-dasharray="1,5" points="584,-138 584,-266 840,-266 840,-138 584,-138"/>
</g>
<g id="clust6" class="cluster">
<title>cluster_AppModule_providers</title>
<polygon fill="none" stroke="black" points="702,-146 702,-198 832,-198 832,-146 702,-146"/>
</g>
<g id="clust3" class="cluster">
<title>cluster_AppModule_imports</title>
<polygon fill="none" stroke="black" points="592,-146 592,-198 694,-198 694,-146 592,-146"/>
</g>
<g id="clust13" class="cluster">
<title>cluster_UserModule</title>
<polygon fill="none" stroke="black" stroke-dasharray="1,5" points="8,-206 8,-274 576,-274 576,-206 8,-206"/>
</g>
<g id="clust18" class="cluster">
<title>cluster_UserModule_providers</title>
<polygon fill="none" stroke="black" points="242,-214 242,-266 568,-266 568,-214 242,-214"/>
</g>
<g id="clust16" class="cluster">
<title>cluster_UserModule_exports</title>
<polygon fill="none" stroke="black" points="16,-214 16,-266 234,-266 234,-214 16,-214"/>
</g>
<!-- AuthModule -->
<g id="node1" class="node">
<title>AuthModule</title>
<polygon fill="#8dd3c7" stroke="black" points="1045.55,-190 1042.55,-194 1021.55,-194 1018.55,-190 958.45,-190 958.45,-154 1045.55,-154 1045.55,-190"/>
<text text-anchor="middle" x="1002" y="-167.8" font-family="Times,serif" font-size="14.00">AuthModule</text>
</g>
<!-- AppModule -->
<g id="node3" class="node">
<title>AppModule</title>
<polygon fill="#8dd3c7" stroke="black" points="808.66,-258 805.66,-262 784.66,-262 781.66,-258 725.34,-258 725.34,-222 808.66,-222 808.66,-258"/>
<text text-anchor="middle" x="767" y="-235.8" font-family="Times,serif" font-size="14.00">AppModule</text>
</g>
<!-- AuthModule&#45;&gt;AppModule -->
<g id="edge1" class="edge">
<title>AuthModule&#45;&gt;AppModule</title>
<path fill="none" stroke="black" d="M958.33,-172C911.48,-172 843.72,-172 843.72,-172 843.72,-172 843.72,-240 843.72,-240 843.72,-240 818.95,-240 818.95,-240"/>
<polygon fill="black" stroke="black" points="818.95,-236.5 808.95,-240 818.95,-243.5 818.95,-236.5"/>
</g>
<!-- AuthInterface  -->
<g id="node5" class="node">
<title>AuthInterface </title>
<polygon fill="#fb8072" stroke="black" points="1200.73,-258 1103.27,-258 1103.27,-222 1200.73,-222 1200.73,-258"/>
<text text-anchor="middle" x="1152" y="-235.8" font-family="Times,serif" font-size="14.00">AuthInterface </text>
</g>
<!-- AuthModule&#45;&gt;AuthInterface  -->
<g id="edge4" class="edge">
<title>AuthModule&#45;&gt;AuthInterface </title>
<path fill="none" stroke="black" stroke-dasharray="5,2" d="M1045.78,-172C1085.15,-172 1136.84,-172 1136.84,-172 1136.84,-172 1136.84,-211.78 1136.84,-211.78"/>
<polygon fill="black" stroke="black" points="1133.35,-211.78 1136.84,-221.78 1140.35,-211.78 1133.35,-211.78"/>
</g>
<!-- AuthService  -->
<g id="node6" class="node">
<title>AuthService </title>
<polygon fill="#fb8072" stroke="black" points="1085.98,-258 996.02,-258 996.02,-222 1085.98,-222 1085.98,-258"/>
<text text-anchor="middle" x="1041" y="-235.8" font-family="Times,serif" font-size="14.00">AuthService </text>
</g>
<!-- AuthModule&#45;&gt;AuthService  -->
<g id="edge5" class="edge">
<title>AuthModule&#45;&gt;AuthService </title>
<path fill="none" stroke="black" stroke-dasharray="5,2" d="M1021.02,-190.22C1021.02,-190.22 1021.02,-211.73 1021.02,-211.73"/>
<polygon fill="black" stroke="black" points="1017.52,-211.73 1021.02,-221.73 1024.52,-211.73 1017.52,-211.73"/>
</g>
<!-- HashingProvider  -->
<g id="node7" class="node">
<title>HashingProvider </title>
<polygon fill="#fb8072" stroke="black" points="978.37,-258 863.63,-258 863.63,-222 978.37,-222 978.37,-258"/>
<text text-anchor="middle" x="921" y="-235.8" font-family="Times,serif" font-size="14.00">HashingProvider </text>
</g>
<!-- AuthModule&#45;&gt;HashingProvider  -->
<g id="edge6" class="edge">
<title>AuthModule&#45;&gt;HashingProvider </title>
<path fill="none" stroke="black" stroke-dasharray="5,2" d="M968.2,-190.22C968.2,-190.22 968.2,-211.73 968.2,-211.73"/>
<polygon fill="black" stroke="black" points="964.7,-211.73 968.2,-221.73 971.7,-211.73 964.7,-211.73"/>
</g>
<!-- UserModule -->
<g id="node2" class="node">
<title>UserModule</title>
<polygon fill="#8dd3c7" stroke="black" points="685.98,-190 682.98,-194 661.98,-194 658.98,-190 600.02,-190 600.02,-154 685.98,-154 685.98,-190"/>
<text text-anchor="middle" x="643" y="-167.8" font-family="Times,serif" font-size="14.00">UserModule</text>
</g>
<!-- UserModule&#45;&gt;AppModule -->
<g id="edge2" class="edge">
<title>UserModule&#45;&gt;AppModule</title>
<path fill="none" stroke="black" d="M657.33,-190.29C657.33,-212.21 657.33,-246 657.33,-246 657.33,-246 715.23,-246 715.23,-246"/>
<polygon fill="black" stroke="black" points="715.23,-249.5 725.23,-246 715.23,-242.5 715.23,-249.5"/>
</g>
<!-- UserInterface  -->
<g id="node10" class="node">
<title>UserInterface </title>
<polygon fill="#fb8072" stroke="black" points="225.66,-258 130.34,-258 130.34,-222 225.66,-222 225.66,-258"/>
<text text-anchor="middle" x="178" y="-235.8" font-family="Times,serif" font-size="14.00">UserInterface </text>
</g>
<!-- UserModule&#45;&gt;UserInterface  -->
<g id="edge9" class="edge">
<title>UserModule&#45;&gt;UserInterface </title>
<path fill="none" stroke="black" stroke-dasharray="5,2" d="M599.67,-172C484.24,-172 178,-172 178,-172 178,-172 178,-211.78 178,-211.78"/>
<polygon fill="black" stroke="black" points="174.5,-211.78 178,-221.78 181.5,-211.78 174.5,-211.78"/>
</g>
<!-- UserService  -->
<g id="node11" class="node">
<title>UserService </title>
<polygon fill="#fb8072" stroke="black" points="111.9,-258 24.1,-258 24.1,-222 111.9,-222 111.9,-258"/>
<text text-anchor="middle" x="68" y="-235.8" font-family="Times,serif" font-size="14.00">UserService </text>
</g>
<!-- UserModule&#45;&gt;UserService  -->
<g id="edge10" class="edge">
<title>UserModule&#45;&gt;UserService </title>
<path fill="none" stroke="black" stroke-dasharray="5,2" d="M599.78,-163C466.06,-163 68,-163 68,-163 68,-163 68,-211.75 68,-211.75"/>
<polygon fill="black" stroke="black" points="64.5,-211.75 68,-221.75 71.5,-211.75 64.5,-211.75"/>
</g>
<!-- AppService -->
<g id="node4" class="node">
<title>AppService</title>
<ellipse fill="#fdb462" stroke="black" cx="767" cy="-172" rx="56.74" ry="18"/>
<text text-anchor="middle" x="767" y="-167.8" font-family="Times,serif" font-size="14.00">AppService</text>
</g>
<!-- AppService&#45;&gt;AppModule -->
<g id="edge3" class="edge">
<title>AppService&#45;&gt;AppModule</title>
<path fill="none" stroke="black" d="M767,-190.22C767,-190.22 767,-211.73 767,-211.73"/>
<polygon fill="black" stroke="black" points="763.5,-211.73 767,-221.73 770.5,-211.73 763.5,-211.73"/>
</g>
<!-- AuthService -->
<g id="node8" class="node">
<title>AuthService</title>
<ellipse fill="#fdb462" stroke="black" cx="1111" cy="-104" rx="59.11" ry="18"/>
<text text-anchor="middle" x="1111" y="-99.8" font-family="Times,serif" font-size="14.00">AuthService</text>
</g>
<!-- AuthService&#45;&gt;AuthModule -->
<g id="edge7" class="edge">
<title>AuthService&#45;&gt;AuthModule</title>
<path fill="none" stroke="black" d="M1051.65,-104C1044.63,-104 1039.91,-104 1039.91,-104 1039.91,-104 1039.91,-143.78 1039.91,-143.78"/>
<polygon fill="black" stroke="black" points="1036.41,-143.78 1039.91,-153.78 1043.41,-143.78 1036.41,-143.78"/>
</g>
<!-- SignInProvider -->
<g id="node9" class="node">
<title>SignInProvider</title>
<ellipse fill="#fdb462" stroke="black" cx="964" cy="-104" rx="70.08" ry="18"/>
<text text-anchor="middle" x="964" y="-99.8" font-family="Times,serif" font-size="14.00">SignInProvider</text>
</g>
<!-- SignInProvider&#45;&gt;AuthModule -->
<g id="edge8" class="edge">
<title>SignInProvider&#45;&gt;AuthModule</title>
<path fill="none" stroke="black" d="M996.13,-120.12C996.13,-120.12 996.13,-143.6 996.13,-143.6"/>
<polygon fill="black" stroke="black" points="992.63,-143.6 996.13,-153.6 999.63,-143.6 992.63,-143.6"/>
</g>
<!-- CreateUserProvider -->
<g id="node12" class="node">
<title>CreateUserProvider</title>
<ellipse fill="#fdb462" stroke="black" cx="472" cy="-240" rx="87.94" ry="18"/>
<text text-anchor="middle" x="472" y="-235.8" font-family="Times,serif" font-size="14.00">CreateUserProvider</text>
</g>
<!-- CreateUserProvider&#45;&gt;UserModule -->
<g id="edge11" class="edge">
<title>CreateUserProvider&#45;&gt;UserModule</title>
<path fill="none" stroke="black" d="M554.92,-234C592.5,-234 628.67,-234 628.67,-234 628.67,-234 628.67,-200.27 628.67,-200.27"/>
<polygon fill="black" stroke="black" points="632.17,-200.27 628.67,-190.27 625.17,-200.27 632.17,-200.27"/>
</g>
<!-- UserService -->
<g id="node13" class="node">
<title>UserService</title>
<ellipse fill="#fdb462" stroke="black" cx="308" cy="-240" rx="58.44" ry="18"/>
<text text-anchor="middle" x="308" y="-235.8" font-family="Times,serif" font-size="14.00">UserService</text>
</g>
<!-- UserService&#45;&gt;UserModule -->
<g id="edge12" class="edge">
<title>UserService&#45;&gt;UserModule</title>
<path fill="none" stroke="black" d="M308,-221.98C308,-204.63 308,-181 308,-181 308,-181 589.89,-181 589.89,-181"/>
<polygon fill="black" stroke="black" points="589.89,-184.5 599.89,-181 589.89,-177.5 589.89,-184.5"/>
</g>
</g>
</svg>
